#!OML:ASF F:\VICON\USERDATA\INSTALL\rory3\rory3.ASF
:FULLY-SPECIFIED
:DEGREES
4538
root 1.96185 17.8935 1.54241 -896.512 -122.693 894.133
lowerback 8.93831 1.07849 -2.40519
upperback 3.22454 1.14094 -0.948026
thorax -1.69652 0.536425 0.257002
lowerneck -6.0101 5.32063 -6.36012
upperneck 12.787 7.0592 5.95684
head 4.35498 3.49811 3.23022
rclavicle 2.74323e-014 1.35174e-014
rhumerus -19.6365 10.2449 -80.6448
rradius 133.375
rwrist -4.40598
rhand -23.454 10.3027
rfingers 7.12502
rthumb 3.00464 -19.6559
lclavicle 2.74323e-014 1.35174e-014
lhumerus -11.3882 -13.9026 77.8147
lradius 140.691
lwrist 16.4102
lhand -5.46036 12.9998
lfingers 7.12502
lthumb 20.351 41.9534
rfemur -4.67645 11.7926 14.2794
rtibia 46.59
rfoot -17.0966 -4.00219
rtoes -29.7343
lfemur -25.8715 4.02557 -1.54101
ltibia 56.3468
lfoot -4.59738 9.80965
ltoes -6.95026
4539
root 1.96848 17.9856 1.49648 -897.05 -122.56 894.82
lowerback 9.28933 1.12217 -2.82077
upperback 3.21428 1.14771 -0.92897
thorax -1.90851 0.539445 0.502816
lowerneck -6.04422 5.23257 -6.52632
upperneck 13.0777 6.93093 6.11594
head 4.44477 3.43235 3.30992
rclavicle 5.46658e-014 -5.56597e-015
rhumerus -18.8397 10.2303 -80.2683
rradius 133.74
rwrist -4.95238
rhand -23.6497 10.3136
rfingers 7.12502
rthumb 2.8157 -19.6475
lclavicle 5.46658e-014 -5.56597e-015
lhumerus -9.85578 -13.4474 76.5975
lradius 141.355
lwrist 16.7325
lhand -6.85231 13.1252
lfingers 7.12502
lthumb 19.0129 42.2159
rfemur -5.61142 11.4524 13.6232
rtibia 47.2587
rfoot -15.0249 -3.22103
rtoes -28.5518
lfemur -26.0843 4.20464 -2.34339
ltibia 56.0455
lfoot -4.37653 10.3826
ltoes -3.18524
4540
root 1.96886 18.0776 1.46219 -897.601 -122.212 895.397
lowerback 9.63202 1.24806 -3.08664
upperback 3.23019 1.27228 -0.969951
thorax -2.08872 0.601296 0.589577
lowerneck -6.20914 5.14668 -6.52122
upperneck 13.5273 6.79593 6.22663
head 4.61406 3.36768 3.35655
rclavicle 6.14245e-014 -1.03368e-014
rhumerus -18.0492 10.1422 -79.8719
rradius 134.219
rwrist -5.34073
rhand -23.9932 10.1926
rfingers 7.12502
rthumb 2.48396 -19.7726
lclavicle 6.14245e-014 -1.03368e-014
lhumerus -8.35182 -13.0055 75.253
lradius 141.957
lwrist 16.8843
lhand -7.90985 13.2391
lfingers 7.12502
lthumb 17.9956 42.4265
rfemur -6.48756 11.3652 12.9788
rtibia 47.9348
rfoot -12.8936 -2.16646
rtoes -25.7695
lfemur -25.9933 4.45742 -3.12379
ltibia 55.5583
lfoot -4.62367 10.1653
ltoes -2.65548
4541
root 1.96968 18.1714 1.43678 -898.028 -121.936 895.907
lowerback 9.93822 1.35727 -3.2418
upperback 3.06874 1.38484 -1.00469
thorax -2.43094 0.663124 0.619218
lowerneck -5.89286 5.07754 -6.42017
upperneck 13.8826 6.65296 6.24695
head 4.68114 3.29292 3.34014
rclavicle 4.37326e-015 -1.98785e-014
rhumerus -17.5761 10.0705 -79.4729
rradius 134.705
rwrist -5.51823
rhand -24.2995 10.1734
rfingers 7.12502
rthumb 2.18811 -19.7951
lclavicle 4.37326e-015 -1.98785e-014
lhumerus -7.23641 -12.6921 73.9366
lradius 142.558
lwrist 17.0248
lhand -9.46885 12.4318
lfingers 7.12502
lthumb 16.4951 41.7506
rfemur -7.44337 11.2617 12.3711
rtibia 48.5998
rfoot -10.795 -1.17753
rtoes -22.8447
lfemur -26.0722 4.6125 -3.93022
ltibia 54.9773
lfoot -4.72453 9.22752
ltoes -4.78913
4542
root 1.97418 18.2498 1.40963 -898.483 -121.699 896.467
lowerback 10.3197 1.48361 -3.4524
upperback 2.85073 1.50936 -1.01717
thorax -2.8765 0.733697 0.697369
lowerneck -5.27106 4.98762 -6.41742
upperneck 13.9292 6.48916 6.21498
head 4.60228 3.20047 3.3035
rclavicle 7.58364e-014 -8.74653e-015
rhumerus -17.1057 9.9616 -78.918
rradius 135.242
rwrist -5.78087
rhand -24.2774 10.0024
rfingers 7.12502
rthumb 2.20948 -19.9659
lclavicle 7.58364e-014 -8.74653e-015
lhumerus -6.28787 -12.8427 72.8147
lradius 143.096
lwrist 16.2496
lhand -15.8216 10.8746
lfingers 7.12502
lthumb 10.3723 40.5988
rfemur -8.44319 11.3126 11.8096
rtibia 49.2805
rfoot -8.63378 -0.545519
rtoes -21.0753
lfemur -26.2124 4.83336 -4.76369
ltibia 54.4006
lfoot -4.78772 7.62878
ltoes -6.85407
